<?xml version="1.0" standalone="no"?>
<!DOCTYPE svg PUBLIC "-//W3C//DTD SVG 20010904//EN"
 "http://www.w3.org/TR/2001/REC-SVG-20010904/DTD/svg10.dtd">
<svg version="1.0" xmlns="http://www.w3.org/2000/svg"
 width="1280.000000pt" height="1280.000000pt" viewBox="0 0 1280.000000 1280.000000"
 preserveAspectRatio="xMidYMid meet">
<metadata>
Created by potrace 1.15, written by Peter Selinger 2001-2017
</metadata>
<g transform="translate(0.000000,1280.000000) scale(0.100000,-0.100000)"
fill="#000000" stroke="none">
<path d="M7036 12559 l-48 -30 -39 25 c-21 15 -53 26 -70 26 -43 0 -134 -62
-297 -204 -73 -64 -152 -129 -176 -146 -24 -16 -61 -52 -81 -80 -20 -27 -41
-50 -46 -50 -5 0 -29 -18 -52 -39 -57 -53 -173 -114 -293 -156 -160 -54 -459
-181 -527 -221 -73 -45 -148 -113 -178 -161 -32 -52 -12 -54 31 -3 56 66 59
68 158 111 70 30 105 39 148 39 51 0 55 -2 52 -22 -4 -26 -31 -36 -105 -37
-28 -1 -64 -6 -80 -12 -40 -15 -89 -65 -128 -131 -29 -49 -34 -67 -37 -137 -2
-45 -3 -81 -2 -81 0 0 28 27 61 60 48 48 66 60 92 60 27 0 30 -2 22 -18 -18
-35 -118 -120 -147 -126 -16 -3 -78 -13 -138 -21 -111 -17 -197 -42 -203 -61
-4 -11 153 -9 319 5 47 4 84 3 82 -1 -12 -19 -101 -62 -215 -104 -119 -44
-216 -89 -251 -117 -22 -18 -29 -73 -8 -69 58 14 78 13 94 -3 37 -38 19 -48
-133 -73 -293 -48 -323 -72 -542 -430 -80 -130 -97 -152 -115 -148 -15 4 -42
-16 -114 -89 -61 -61 -140 -126 -223 -182 l-128 -88 24 -20 25 -20 -149 -80
c-169 -89 -254 -154 -325 -247 -26 -35 -78 -96 -115 -136 -37 -40 -78 -94 -91
-120 -21 -43 -23 -58 -21 -193 2 -134 5 -160 42 -309 23 -90 41 -174 41 -187
0 -27 15 -63 187 -441 150 -332 178 -375 475 -710 209 -236 296 -343 327 -402
13 -25 54 -92 92 -150 94 -145 107 -179 124 -322 31 -264 132 -489 326 -730
87 -109 341 -302 757 -576 194 -128 244 -168 548 -434 274 -239 367 -314 507
-408 l172 -115 11 -50 c15 -69 39 -112 73 -130 l29 -15 -13 -48 c-14 -55 -162
-338 -230 -440 -74 -112 -356 -442 -455 -532 -159 -145 -173 -161 -239 -285
-76 -141 -139 -242 -191 -305 -20 -25 -83 -110 -139 -190 -149 -210 -181 -247
-216 -254 -16 -3 -129 -17 -250 -31 -340 -38 -302 -27 -337 -101 -17 -36 -41
-119 -55 -187 -30 -148 -27 -196 22 -363 72 -243 76 -301 44 -596 -24 -227
-22 -270 21 -443 58 -227 92 -250 205 -145 36 34 116 94 178 134 67 44 146
107 197 157 47 46 113 107 146 136 36 30 71 71 83 96 27 55 28 126 2 158 -18
23 -18 23 3 34 11 6 59 61 106 124 79 104 147 168 240 221 12 7 12 10 0 26 -8
11 0 6 19 -9 l34 -28 149 148 c90 90 148 141 148 130 0 -9 -16 -34 -35 -56
-19 -21 -53 -77 -74 -123 -41 -89 -101 -258 -101 -285 0 -9 -60 -78 -133 -152
-251 -255 -314 -368 -321 -567 -4 -105 4 -132 44 -169 12 -11 26 -30 31 -42 8
-21 15 -23 85 -23 l76 0 192 119 c258 161 394 269 433 345 9 17 35 52 58 77
24 25 53 66 65 90 24 47 175 201 221 224 15 8 34 24 42 35 7 11 31 31 53 46
21 15 67 51 102 81 48 43 62 61 62 82 0 22 10 35 40 56 64 44 116 107 139 169
30 82 60 137 164 308 86 141 306 578 357 708 39 100 128 373 160 490 96 356
137 485 191 605 60 134 89 226 89 281 0 17 11 91 25 165 53 278 44 368 -45
484 -27 36 -65 98 -84 138 -19 40 -55 115 -79 167 -59 124 -186 339 -303 516
-124 187 -264 372 -577 764 -370 463 -371 464 -372 670 -1 139 -3 149 -57 296
-27 74 -35 86 -99 140 -116 99 -227 252 -213 296 10 32 6 105 -7 141 -12 33
-9 39 71 188 45 85 97 177 114 204 39 62 127 284 152 385 24 98 25 448 1 735
-9 110 -19 238 -22 285 -3 47 -17 164 -31 260 -21 153 -24 205 -22 415 3 229
2 246 -25 368 -32 152 -31 137 -12 137 27 0 77 -30 135 -80 85 -73 109 -83
160 -65 23 8 55 24 72 36 25 18 32 19 39 8 23 -37 -2 -100 -83 -210 -80 -107
-88 -124 -88 -184 0 -36 5 -48 31 -69 17 -14 35 -26 39 -26 5 0 7 29 3 63 -3
40 -1 78 7 101 12 37 64 106 80 106 4 0 9 -33 12 -73 4 -69 27 -127 49 -127 5
0 9 62 9 139 l0 138 46 98 c30 63 49 118 53 156 4 32 10 62 14 65 3 4 26 2 49
-4 37 -10 45 -9 56 5 6 9 12 24 12 34 0 18 27 45 36 36 3 -3 -11 -42 -31 -86
-62 -139 -77 -190 -82 -291 -4 -87 -3 -93 11 -76 9 11 16 26 16 34 0 26 67
215 114 323 40 89 52 108 80 121 24 12 42 35 70 87 39 75 78 115 84 86 7 -31
-21 -85 -72 -142 -82 -93 -92 -111 -125 -237 -48 -181 -89 -250 -185 -317 -28
-19 -52 -43 -54 -51 -2 -12 21 -4 84 30 73 39 97 59 154 127 37 44 82 93 99
109 44 42 41 15 -13 -103 -59 -129 -62 -141 -39 -141 21 0 110 142 140 223 9
26 21 47 25 47 4 0 19 -20 34 -45 14 -25 27 -45 28 -45 1 0 0 43 -2 96 l-4 96
56 52 c56 50 58 54 80 146 13 52 51 158 84 235 32 77 63 163 67 190 4 28 25
101 46 164 21 63 39 129 39 147 0 24 8 39 33 59 67 54 76 66 83 110 11 74 -2
111 -57 168 -63 65 -64 67 -78 152 -14 78 -30 110 -60 118 -24 6 -26 -5 -10
-72 5 -24 7 -46 4 -49 -13 -13 -45 35 -56 85 -11 49 -20 61 -75 110 -64 56
-154 191 -154 229 0 35 -30 63 -93 86 -38 13 -80 39 -107 64 -59 55 -118 94
-141 94 -26 0 -24 -10 9 -56 48 -67 48 -66 5 -58 -58 10 -97 29 -153 73 -63
50 -90 51 -154 10z m-2740 -3380 c17 -19 19 -37 18 -188 -4 -419 -17 -912 -24
-909 -5 2 -23 26 -42 53 -22 34 -43 53 -64 59 -39 12 -73 65 -144 226 -27 63
-66 138 -85 165 -18 28 -39 70 -44 95 -26 112 -1 367 41 432 9 14 34 33 54 43
50 23 193 43 202 28 5 -8 14 -7 32 2 33 19 34 18 56 -6z"/>
</g>
</svg>
